<svg width="235" height="266" xmlns="http://www.w3.org/2000/svg" xmlns:xlink="http://www.w3.org/1999/xlink" overflow="hidden"><defs><clipPath id="clip0"><rect x="421" y="359" width="235" height="266"/></clipPath></defs><g clip-path="url(#clip0)" transform="translate(-421 -359)"><path d="M538.5 361C542.097 361 545.695 361.933 548.919 363.8L643.581 418.601C650.028 422.334 654 429.232 654 436.698L654 546.302C654 553.767 650.028 560.665 643.581 564.398L548.919 619.2C542.472 622.934 534.528 622.934 528.08 619.2L433.419 564.398C426.972 560.665 423 553.767 423 546.302L423 436.698C423 429.232 426.972 422.334 433.419 418.601L528.08 363.8C531.304 361.933 534.902 361 538.5 361Z" fill="#F7F5FB" fill-rule="evenodd"/><path d="M538.5 406.071C536.13 406.071 533.759 406.682 531.635 407.904L469.272 443.779C465.025 446.222 462.408 450.738 462.408 455.625L462.408 527.375C462.408 532.262 465.025 536.777 469.272 539.221L531.635 575.095C535.883 577.54 541.116 577.54 545.364 575.095L607.728 539.221C611.975 536.777 614.592 532.262 614.592 527.375L614.592 455.625C614.592 450.738 611.975 446.222 607.728 443.779L545.364 407.904C543.24 406.682 540.87 406.071 538.5 406.071ZM538.5 400C541.038 400 543.577 400.654 545.852 401.963L612.648 440.387C617.197 443.004 620 447.841 620 453.075L620 529.924C620 535.158 617.197 539.995 612.648 542.612L545.852 581.036C541.302 583.655 535.697 583.655 531.148 581.036L464.352 542.612C459.803 539.995 457 535.158 457 529.924L457 453.075C457 447.841 459.803 443.004 464.352 440.387L531.148 401.963C533.422 400.654 535.961 400 538.5 400Z" fill="#EF6F6C" fill-rule="evenodd"/><path d="M538 368.759C534.597 368.759 531.194 369.64 528.145 371.403L438.618 423.156C432.52 426.681 428.763 433.196 428.763 440.246L428.763 543.754C428.763 550.804 432.52 557.318 438.618 560.843L528.145 612.597C534.243 616.123 541.756 616.123 547.854 612.597L637.382 560.843C643.48 557.318 647.237 550.804 647.237 543.754L647.237 440.246C647.237 433.196 643.48 426.681 637.382 423.156L547.854 371.403C544.805 369.64 541.402 368.759 538 368.759ZM538 360C541.644 360 545.289 360.944 548.554 362.832L644.445 418.264C650.976 422.039 655 429.017 655 436.568L655 547.432C655 554.983 650.976 561.96 644.445 565.736L548.554 621.167C542.023 624.944 533.976 624.944 527.445 621.167L431.555 565.736C425.023 561.96 421 554.983 421 547.432L421 436.568C421 429.017 425.023 422.039 431.555 418.264L527.445 362.832C530.711 360.944 534.355 360 538 360Z" fill="#1D3557" fill-rule="evenodd"/><rect x="436" y="491" width="204" height="55" fill="#F7F5FB"/><text fill="#1D3557" font-family="Poppins,Poppins_MSFontService,sans-serif" font-weight="600" font-size="37" transform="translate(446.839 530)">CONNECT<tspan fill="#EF6F6C" font-size="53" x="32.1667" y="-38">CPP</tspan></text></g></svg>