<svg width="428" height="422" xmlns="http://www.w3.org/2000/svg" xmlns:xlink="http://www.w3.org/1999/xlink" xml:space="preserve" overflow="hidden"><defs><clipPath id="clip0"><rect x="746" y="149" width="428" height="422"/></clipPath></defs><g clip-path="url(#clip0)" transform="translate(-746 -149)"><path d="M569.539 351.446 623.362 366.612 613.473 378.456 545.789 459.531 545.929 459.649 545.603 460.021 503.443 542.501 525.394 435.13ZM515.948 271.465 697.756 277.495 656.046 327.46 635.73 351.795 584.502 337.36 584.502 337.36 577.945 335.512 573.992 343.003 569.539 351.446 569.539 351.446 573.992 343.003 577.944 335.512 560.162 330.501 551.756 346.434 551.757 346.434 522.509 401.878 522.379 401.423 498.557 446.582ZM797.831 121.236 702.104 253.449 503.821 248.674 482.834 385.233 369.831 183.547 634.236 191.872Z" fill="#FFFFFF" fill-rule="evenodd" transform="matrix(1 0 0 1.00175 376.169 27.5523)"/></g></svg>